<svg xmlns="http://www.w3.org/2000/svg" version="1.1" viewBox="-5.0 -10.0 110.0 135.0">
 <path d="m68.008 43.246 9.707 2.1992c0.19141 0.042969 0.36328 0.13281 0.5 0.25391l3.7383 2.9492-0.003906-30.984c0-0.78906-0.64844-1.4375-1.4375-1.4375h-73.578c-0.78906 0-1.4375 0.64844-1.4375 1.4375v39.277h69.457l-3.5273-2.7852-0.30078-0.38281-4.3867-8.9258c-0.41797-0.85547 0.34766-1.8086 1.2656-1.6016zm-42.098 31.855h10.379v-6.2227h-29.355c-2.043 0-3.707-1.668-3.707-3.707v-47.508c0-2.043 1.668-3.707 3.707-3.707h73.582c2.043 0 3.707 1.668 3.707 3.707v32.781l11.742 9.2695c0.87109 0.6875 1.0938 1.9336 0.39844 2.8125l-4.2891 5.4297c-0.69141 0.87891-1.9609 0.94922-2.8281 0.26172l-5.0234-3.9648v0.91406c0 2.043-1.668 3.707-3.707 3.707h-29.355v6.2227h10.379c0.62891 0 1.1367 0.50781 1.1367 1.1367v8.6719c0 0.62891-0.50781 1.1367-1.1367 1.1367h-35.629c-0.62891 0-1.1367-0.50781-1.1367-1.1367v-8.6719c0-0.625 0.50781-1.1328 1.1367-1.1328zm34.492 2.2695h-33.355v6.3984h33.359zm-21.844-8.4922v6.2227h10.328v-6.2227zm-33.062-9.668v5.957c0 0.78906 0.64844 1.4375 1.4375 1.4375h73.582c0.78906 0 1.4375-0.64844 1.4375-1.4375v-2.707l-4.1172-3.2539zm73.34-2.0898-5.0977-4.0273 3.9141-4.957 13.781 10.883-3.9141 4.957zm-62.504-19.066c-0.62891 0-1.1367-0.50781-1.1367-1.1367 0-0.62891 0.50781-1.1367 1.1367-1.1367h31.703c0.62891 0 1.1367 0.50781 1.1367 1.1367 0 0.62891-0.50781 1.1367-1.1367 1.1367zm0-6.3945c-0.62891 0-1.1367-0.50781-1.1367-1.1367 0-0.62891 0.50781-1.1367 1.1367-1.1367h22.258c0.62891 0 1.1367 0.50781 1.1367 1.1367 0 0.62891-0.50781 1.1367-1.1367 1.1367zm76.875 28.762-3.9141 4.957 1.1953 0.94141 3.9141-4.957zm-20.844-13.867 3.1016 0.70312-3.0898 3.918-2.5547-5.1953z" fill-rule="evenodd"/>
<text x="0.0" y="117.5" font-size="5.0" font-weight="bold" font-family="Arbeit Regular, Helvetica, Arial-Unicode, Arial, Sans-serif" fill="#000000">Created by naili nikmatul</text><text x="0.0" y="122.5" font-size="5.0" font-weight="bold" font-family="Arbeit Regular, Helvetica, Arial-Unicode, Arial, Sans-serif" fill="#000000">from Noun Project</text></svg>