<svg xmlns="http://www.w3.org/2000/svg" data-name="Layer 3" viewBox="0 0 512 640" x="0px" y="0px"><path d="M307.087,332.099H91.608c-9.925,0-18,8.075-18,18v101.609c0,9.925,8.075,18,18,18h215.479c9.925,0,18-8.075,18-18v-101.609c0-9.925-8.075-18-18-18Zm6,18v55.839l-32.927-17.226c-5.224-2.733-11.462-2.734-16.688,0l-39.391,20.607-39.391-20.607c-5.224-2.733-11.462-2.734-16.688,0l-82.396,43.105v-47.067c2.551,.465,5.146,.707,7.769,.707,23.225,0,42.233-18.38,43.255-41.358h170.455c3.309,0,6,2.691,6,6Zm-1.179,105.166l-74.882-39.174,32.01-16.746c1.742-.911,3.82-.911,5.562,0l38.489,20.135v32.227c0,1.333-.442,2.561-1.179,3.557Zm-220.299-111.166h33.007c-1.009,16.357-14.631,29.358-31.238,29.358-2.64,0-5.239-.335-7.769-.985v-22.373c0-3.309,2.691-6,6-6Zm-6,107.609v-6.347l87.958-46.015c1.742-.911,3.82-.911,5.562,0l111.56,58.362H91.608c-3.309,0-6-2.691-6-6Z"/><path d="M22,202.826H190.018c9.925,0,18-8.075,18-18V22c0-9.925-8.075-18-18-18H22C12.075,4,4,12.075,4,22V184.826c0,9.925,8.075,18,18,18Zm168.018-12H22c-3.309,0-6-2.691-6-6V62.015H99.927c2.288,0,4.344,1.271,5.367,3.316l4.293,8.586c3.069,6.138,9.238,9.95,16.1,9.95h70.331v100.958c0,3.309-2.691,6-6,6ZM22,16H190.018c3.309,0,6,2.691,6,6v49.868H125.687c-2.287,0-4.344-1.271-5.367-3.317l-4.292-8.585c-3.068-6.138-9.237-9.951-16.101-9.951H16V22c0-3.309,2.691-6,6-6Z"/><circle cx="502" cy="179.609" r="6"/><path d="M490,4H249.131c-9.925,0-18,8.075-18,18V225.939H22c-9.925,0-18,8.075-18,18v246.061c0,9.925,8.075,18,18,18H490c9.925,0,18-8.075,18-18V203.608c0-3.314-2.687-6-6-6s-6,2.686-6,6V490c0,3.309-2.691,6-6,6h-96.355c.668-1.88,1.05-3.894,1.05-6V243.939c0-9.925-8.075-18-18-18H243.131V62.015h120.184c1.957,0,3.795,.958,4.916,2.561l8.12,11.608c3.365,4.812,8.879,7.684,14.75,7.684h104.899v71.74c0,3.314,2.687,6,6,6s6-2.686,6-6V22c0-9.925-8.075-18-18-18ZM22,496c-3.309,0-6-2.691-6-6v-206.046H194.377c1.579,0,3.126,.641,4.243,1.757l14.823,14.823c3.399,3.4,7.92,5.272,12.729,5.272h156.523v184.193c0,3.309-2.691,6-6,6H22ZM382.695,243.939v49.868H226.172c-1.603,0-3.109-.624-4.243-1.757l-14.824-14.824c-3.399-3.399-7.92-5.272-12.728-5.272H16v-28.015c0-3.309,2.691-6,6-6H376.695c3.309,0,6,2.691,6,6Zm8.405-172.071c-1.957,0-3.795-.958-4.916-2.562l-8.12-11.608c-3.365-4.811-8.879-7.683-14.75-7.683h-120.184V22c0-3.309,2.691-6,6-6h240.869c3.309,0,6,2.691,6,6v49.868h-104.899Z"/><text x="0" y="527" fill="#ffffff" font-size="5px" font-weight="bold" font-family="'Helvetica Neue', Helvetica, Arial-Unicode, Arial, Sans-serif">Created by Setitik pixel</text><text x="0" y="532" fill="#ffffff" font-size="5px" font-weight="bold" font-family="'Helvetica Neue', Helvetica, Arial-Unicode, Arial, Sans-serif">from the Noun Project</text></svg>