<svg xmlns="http://www.w3.org/2000/svg" version="1.1" viewBox="-5.0 -10.0 110.0 135.0">
 <path d="m99.84 70.945-12.938-24.273 10.828-13.855c0.32031-0.41016 0.38281-0.97266 0.15234-1.4414-0.23047-0.46875-0.70703-0.76953-1.2305-0.76953h-14.953l1.75-5.1797c1.0703-0.16016 2.1016-0.54688 3.043-1.1523 4.0859 0.23437 5.1875 2.5312 5.4727 3.5352 0.15625 0.54688 0.63281 0.94141 1.1992 0.98828l4.75 0.40234c0.039063 0.003906 0.078126 0.003906 0.11719 0.003906 0.39844 0 0.77734-0.17188 1.0391-0.48047 0.28516-0.33594 0.39453-0.78906 0.28906-1.2148-1.1875-4.8203-4.9688-9.3711-9.3594-11.371-0.30078-2.0977-1.4844-3.9961-3.2812-5.2031-2.1055-1.4141-4.7578-1.7344-7.3516-0.90234l-1.8906-0.86328 0.074219-0.66406c0.070313-0.61328-0.27734-1.1953-0.85156-1.4258l-3.7656-1.5078c-0.69531-0.27734-1.4844 0.054688-1.7734 0.74609l-4.3281 10.508c-0.14062 0.33984-0.13672 0.72266 0.007813 1.0625 0.14453 0.33984 0.42188 0.60547 0.76562 0.73828l3.4727 1.3359c0.44922 0.17187 0.96094 0.09375 1.3359-0.20313l0.50781-0.39844 1.9375 0.78125c0.16406 0.70703 0.46484 1.3867 0.88281 2.0078l-4.3008 8.4609h-14.07l1.3125-4.1992c0.09375-0.30469 0.082031-0.63281-0.042969-0.92969l-3.3047-8.0156c-0.22266-0.54297-0.77344-0.88281-1.3594-0.84375l-4.2734 0.29297c-0.61328 0.042969-1.125 0.48828-1.2461 1.0938l-1.7422 8.6406c-0.058594 0.29687-0.019532 0.60547 0.11328 0.875l2.25 4.5586 0.15625 2.9727-7.8008 9.3945c-1.457-4.4961-2.7656-9.9688-3.2344-12.715 0.10547-0.1875 0.21094-0.37891 0.30859-0.57812 1.1328-2.2891 1.5-4.8711 1.0078-7.0898-0.76562-3.457-3.6328-7.543-9.375-8.6484-0.47656-0.09375-0.96875 0.078125-1.2891 0.44141-0.32031 0.36719-0.42187 0.875-0.26562 1.3359l2.4531 7.2969-5.1133 1.8281-2.8711-6.8203c-0.17578-0.42188-0.55469-0.72656-1.0039-0.8125s-0.91406 0.058594-1.2344 0.38672c-2.2227 2.2695-3.7344 6.8008-1.8047 11.383 0.019531 0.046875 0.042969 0.09375 0.066406 0.14453l-17.711 0.003907c-0.56641 0-1.0742 0.34766-1.2773 0.875-0.20312 0.52734-0.0625 1.125 0.35938 1.5078l15.242 13.777-14.312 18.863c-0.3125 0.41406-0.36719 0.96875-0.13672 1.4336 0.23047 0.46484 0.70312 0.75781 1.2227 0.76172l13.582 0.023437v25.312c0 0.75391 0.61328 1.3672 1.3672 1.3672h71.59c0.75391 0 1.3672-0.61328 1.3672-1.3672l0.003906-20.133 8.2734-0.070313c0.47656-0.003906 0.91797-0.25781 1.1641-0.66797 0.24219-0.41406 0.25391-0.92187 0.027344-1.3438zm-5.9883-37.605-9.2344 11.812-7.8086-0.070313 3.9688-11.742zm-16.062-9.1914c0.32813 0.21875 0.67969 0.41406 1.0508 0.58594 0.57812 0.26953 1.168 0.46094 1.7617 0.59375l-6.668 19.73-6.7344-0.0625zm-4.582-7.6289c-0.45312-0.18359-0.97266-0.10938-1.3594 0.19531l-0.51953 0.41016-1.4375-0.55078 3.2891-7.957 1.5391 0.61719-0.070312 0.61328c-0.066407 0.58984 0.25 1.1523 0.78906 1.3984l3.293 1.5078c0.33594 0.15234 0.71875 0.16406 1.0625 0.03125 1.9258-0.74219 3.8945-0.58984 5.4023 0.42578 1.332 0.89453 2.1172 2.3164 2.1445 3.9023 0.011718 0.55859 0.36328 1.0547 0.88672 1.2539 3.3555 1.2656 6.3867 4.3867 7.8633 7.9414l-1.832-0.15625c-0.77344-1.7031-2.8516-4.5156-8.1406-4.625-0.30078-0.007813-0.59766 0.085937-0.83984 0.26562-0.85156 0.62891-1.8477 0.96094-2.8711 0.98438h-0.023438c-0.79687 0.015625-1.6133-0.15625-2.3906-0.51953-0.62891-0.29297-1.168-0.68359-1.582-1.1289-0.027344-0.03125-0.054687-0.0625-0.085937-0.09375-0.51562-0.58594-0.82812-1.2656-0.87109-1.9609-0.035156-0.52344-0.36719-0.98438-0.85547-1.1797zm-9.0625 28.449-0.32812-0.003906h-0.011718-0.015626l-5.2461 0.054687-1.1797-11.68h12.684zm-13.211-25.398 2.25-0.15625 2.7422 6.6484-1.457 4.6719c-0.054688 0.17578-0.074219 0.35938-0.054688 0.54297l0.082032 0.81641c0 0.011719 0.003906 0.023438 0.003906 0.035156l1.3047 12.922-3.3047 0.035157-0.50391-9.6641v-0.03125l-0.19531-3.7305c-0.007812-0.1875-0.058593-0.36719-0.14062-0.53516l-2.168-4.3945zm-1.1758 25.543-5.3672 0.054688 5.0508-6.0859zm-15.637 0.16016c-1.293-2.7891-3.0156-5.9688-4.3594-8.2891 1.0273-0.074219 2.0547-0.28125 3.0547-0.62891 1.1523-0.39844 2.2109-1.0273 3.1406-1.8438 0.64453 3.0117 1.7031 7.1562 2.8516 10.711zm-12.594-22.344 2.3789 5.6484c0.28125 0.66797 1.0352 1 1.7188 0.75781l7.5977-2.7109c0.70312-0.25 1.0742-1.0156 0.83594-1.7227l-2.0234-6.0312c2.8516 1.3125 4.3516 3.707 4.8125 5.793 0.72266 3.2461-1.2305 7.8359-4.9258 9.1133-1.0078 0.34766-2.0195 0.51562-2.9961 0.51562-0.44922 0-0.89062-0.039063-1.3242-0.10938-0.058593-0.015625-0.11328-0.023438-0.17187-0.03125-2.5859-0.46875-4.7969-2.1523-5.8945-4.7539-1.0391-2.4609-0.73047-4.7891-0.007812-6.4688zm-0.73438 10.41c1.0898 1.2656 2.457 2.2578 4.0234 2.8906 0.52344 0.21094 1.0625 0.375 1.6094 0.50391 1.1914 1.9375 3.1406 5.3945 4.6836 8.5742l-12.809 0.13281-13.387-12.098zm-2.7422 14.836 23.27-0.24219c0.039063 0.003906 0.082032 0.011718 0.12109 0.011718 0.0625 0 0.12109-0.003906 0.18359-0.011718l9.5391-0.097656h0.035157 0.074219 0.011718l9.8047-0.10156-12.797 17.438-43.074-0.078125zm0.73047 19.676 30.191 0.054688h0.003906c0.43359 0 0.84375-0.20703 1.1016-0.55859l12.355-16.836v41.281l-43.652-0.003907zm68.859 23.938h-22.469v-39.832l10.57 20.445c0.23437 0.45312 0.70312 0.73828 1.2148 0.73828h0.011719l10.668-0.09375zm1.375-21.484h-0.007813-0.011718l-11.207 0.097656-11.727-22.676 18.395 0.16406 11.91 22.352zm-30.383 8.3516v9.3242c0 0.75391-0.61328 1.3672-1.3672 1.3672h-6.5391c-0.75391 0-1.3672-0.61328-1.3672-1.3672 0-0.75391 0.61328-1.3672 1.3672-1.3672h5.1719v-7.957c0-0.75391 0.61328-1.3672 1.3672-1.3672 0.75781 0 1.3672 0.61328 1.3672 1.3672z"/>
<text x="0.0" y="117.5" font-size="5.0" font-weight="bold" font-family="Arbeit Regular, Helvetica, Arial-Unicode, Arial, Sans-serif" fill="#000000">Created by kanfaz art</text><text x="0.0" y="122.5" font-size="5.0" font-weight="bold" font-family="Arbeit Regular, Helvetica, Arial-Unicode, Arial, Sans-serif" fill="#000000">from Noun Project</text></svg>