<svg xmlns="http://www.w3.org/2000/svg" xmlns:xlink="http://www.w3.org/1999/xlink" version="1.1" x="0px" y="0px" viewBox="0 0 128 160" enable-background="new 0 0 128 128" xml:space="preserve"><g><path d="M5.6,76.8v10.3c0,0.4,0.3,0.8,0.8,0.8c0.4,0,0.8-0.3,0.8-0.8V76.8c0-0.4-0.3-0.8-0.8-0.8S5.6,76.4,5.6,76.8z"/><path d="M6.3,94.6c0.4,0,0.8-0.3,0.8-0.8v-3.3c0-0.4-0.3-0.8-0.8-0.8c-0.4,0-0.8,0.3-0.8,0.8v3.3C5.6,94.2,5.9,94.6,6.3,94.6z"/><path d="M120.4,66.7c0.4,0,0.8-0.3,0.8-0.8V55.6c0-0.4-0.3-0.8-0.8-0.8c-0.4,0-0.8,0.3-0.8,0.8v10.3   C119.6,66.4,120,66.7,120.4,66.7z"/><path d="M120.4,73.4c0.4,0,0.8-0.3,0.8-0.8v-3.3c0-0.4-0.3-0.8-0.8-0.8c-0.4,0-0.8,0.3-0.8,0.8v3.3C119.6,73.1,120,73.4,120.4,73.4   z"/><path d="M37.7,10.9c0.1,0.1,0.3,0.2,0.5,0.2s0.4-0.1,0.5-0.2c0.3-0.3,0.3-0.8,0-1.1l-1.6-1.6c-0.3-0.3-0.8-0.3-1.1,0S35.7,9,36,9.3   L37.7,10.9z"/><path d="M43,16.2c0.1,0.1,0.3,0.2,0.5,0.2s0.4-0.1,0.5-0.2c0.3-0.3,0.3-0.8,0-1.1l-1.6-1.6c-0.3-0.3-0.8-0.3-1.1,0s-0.3,0.8,0,1.1   L43,16.2z"/><path d="M36.6,16.4c0.2,0,0.4-0.1,0.5-0.2l1.6-1.6c0.3-0.3,0.3-0.8,0-1.1s-0.8-0.3-1.1,0L36,15.1c-0.3,0.3-0.3,0.8,0,1.1   C36.2,16.4,36.4,16.4,36.6,16.4z"/><path d="M41.9,11.2c0.2,0,0.4-0.1,0.5-0.2L44,9.3c0.3-0.3,0.3-0.8,0-1.1C43.7,8,43.3,8,43,8.3l-1.6,1.6c-0.3,0.3-0.3,0.8,0,1.1   C41.5,11.1,41.7,11.2,41.9,11.2z"/><path d="M6.4,27.7c0.1,0.1,0.3,0.2,0.5,0.2s0.4-0.1,0.5-0.2c0.3-0.3,0.3-0.8,0-1.1L5.8,25c-0.3-0.3-0.8-0.3-1.1,0   c-0.3,0.3-0.3,0.8,0,1.1L6.4,27.7z"/><path d="M11.1,30.3c-0.3-0.3-0.8-0.3-1.1,0s-0.3,0.8,0,1.1l1.6,1.6c0.1,0.1,0.3,0.2,0.5,0.2s0.4-0.1,0.5-0.2c0.3-0.3,0.3-0.8,0-1.1   L11.1,30.3z"/><path d="M7.5,31.3c0.3-0.3,0.3-0.8,0-1.1c-0.3-0.3-0.8-0.3-1.1,0l-1.6,1.6c-0.3,0.3-0.3,0.8,0,1.1c0.1,0.1,0.3,0.2,0.5,0.2   s0.4-0.1,0.5-0.2L7.5,31.3z"/><path d="M11.7,25L10,26.6c-0.3,0.3-0.3,0.8,0,1.1c0.1,0.1,0.3,0.2,0.5,0.2s0.4-0.1,0.5-0.2l1.6-1.6c0.3-0.3,0.3-0.8,0-1.1   C12.4,24.7,11.9,24.7,11.7,25z"/><path d="M92,24.3c0.1,0.1,0.3,0.2,0.5,0.2s0.4-0.1,0.5-0.2c0.3-0.3,0.3-0.8,0-1.1l-1.6-1.6c-0.3-0.3-0.8-0.3-1.1,0   c-0.3,0.3-0.3,0.8,0,1.1L92,24.3z"/><path d="M96.7,26.8c-0.3-0.3-0.8-0.3-1.1,0c-0.3,0.3-0.3,0.8,0,1.1l1.6,1.6c0.1,0.1,0.3,0.2,0.5,0.2s0.4-0.1,0.5-0.2   c0.3-0.3,0.3-0.8,0-1.1L96.7,26.8z"/><path d="M90.9,29.7c0.2,0,0.4-0.1,0.5-0.2l1.6-1.6c0.3-0.3,0.3-0.8,0-1.1c-0.3-0.3-0.8-0.3-1.1,0l-1.6,1.6c-0.3,0.3-0.3,0.8,0,1.1   C90.5,29.7,90.7,29.7,90.9,29.7z"/><path d="M98.3,21.6c-0.3-0.3-0.8-0.3-1.1,0l-1.6,1.6c-0.3,0.3-0.3,0.8,0,1.1c0.1,0.1,0.3,0.2,0.5,0.2s0.4-0.1,0.5-0.2l1.6-1.6   C98.6,22.3,98.6,21.9,98.3,21.6z"/><path d="M82.6,109.3c-0.3-0.3-0.8-0.3-1.1,0c-0.3,0.3-0.3,0.8,0,1.1l1.2,1.2c0.1,0.1,0.3,0.2,0.5,0.2s0.4-0.1,0.5-0.2   c0.3-0.3,0.3-0.8,0-1.1L82.6,109.3z"/><path d="M86.7,113.3c-0.3-0.3-0.8-0.3-1.1,0c-0.3,0.3-0.3,0.8,0,1.1l1.2,1.2c0.1,0.1,0.3,0.2,0.5,0.2s0.4-0.1,0.5-0.2   c0.3-0.3,0.3-0.8,0-1.1L86.7,113.3z"/><path d="M82.8,113.3l-1.2,1.2c-0.3,0.3-0.3,0.8,0,1.1c0.1,0.1,0.3,0.2,0.5,0.2s0.4-0.1,0.5-0.2l1.2-1.2c0.3-0.3,0.3-0.8,0-1.1   C83.6,113,83.1,113,82.8,113.3z"/><path d="M86.8,109.3l-1.2,1.2c-0.3,0.3-0.3,0.8,0,1.1c0.1,0.1,0.3,0.2,0.5,0.2s0.4-0.1,0.5-0.2l1.2-1.2c0.3-0.3,0.3-0.8,0-1.1   C87.6,109,87.1,109,86.8,109.3z"/><path d="M14.6,119.8c-0.3-0.3-0.8-0.3-1.1,0s-0.3,0.8,0,1.1l1.2,1.2c0.1,0.1,0.3,0.2,0.5,0.2s0.4-0.1,0.5-0.2   c0.3-0.3,0.3-0.8,0-1.1L14.6,119.8z"/><path d="M18.7,123.8c-0.3-0.3-0.8-0.3-1.1,0c-0.3,0.3-0.3,0.8,0,1.1l1.2,1.2c0.1,0.1,0.3,0.2,0.5,0.2s0.4-0.1,0.5-0.2   c0.3-0.3,0.3-0.8,0-1.1L18.7,123.8z"/><path d="M14.8,123.8l-1.2,1.2c-0.3,0.3-0.3,0.8,0,1.1c0.1,0.1,0.3,0.2,0.5,0.2s0.4-0.1,0.5-0.2l1.2-1.2c0.3-0.3,0.3-0.8,0-1.1   C15.6,123.5,15.1,123.5,14.8,123.8z"/><path d="M18.8,119.8l-1.2,1.2c-0.3,0.3-0.3,0.8,0,1.1c0.1,0.1,0.3,0.2,0.5,0.2s0.4-0.1,0.5-0.2l1.2-1.2c0.3-0.3,0.3-0.8,0-1.1   C19.6,119.5,19.1,119.5,18.8,119.8z"/><path d="M119.6,90c-2.1,0-3.8,1.7-3.8,3.8c0,2.1,1.7,3.8,3.8,3.8c2.1,0,3.8-1.7,3.8-3.8C123.5,91.7,121.7,90,119.6,90z M119.6,96.1   c-1.3,0-2.3-1-2.3-2.3s1-2.3,2.3-2.3s2.3,1,2.3,2.3S120.9,96.1,119.6,96.1z"/><path d="M8.7,103.7c-1.7,0-3.2,1.4-3.2,3.2c0,1.7,1.4,3.2,3.2,3.2s3.2-1.4,3.2-3.2S10.5,103.7,8.7,103.7z M8.7,108.5   c-0.9,0-1.7-0.7-1.7-1.7c0-0.9,0.7-1.7,1.7-1.7s1.7,0.7,1.7,1.7S9.7,108.5,8.7,108.5z"/><path d="M32.9,29.9c1.8,0,3.3-1.5,3.3-3.3s-1.5-3.3-3.3-3.3s-3.3,1.5-3.3,3.3C29.6,28.5,31.1,29.9,32.9,29.9z M32.9,24.8   c1,0,1.8,0.8,1.8,1.8s-0.8,1.8-1.8,1.8s-1.8-0.8-1.8-1.8C31.1,25.6,31.9,24.8,32.9,24.8z"/><path d="M118.8,118.4h-11.2c-0.4,0-0.8,0.3-0.8,0.8s0.3,0.8,0.8,0.8h11.2c0.4,0,0.8-0.3,0.8-0.8S119.2,118.4,118.8,118.4z"/><path d="M100.4,118.4c-0.4,0-0.8,0.3-0.8,0.8s0.3,0.8,0.8,0.8h3.6c0.4,0,0.8-0.3,0.8-0.8s-0.3-0.8-0.8-0.8H100.4z"/><path d="M108.2,122.2h-7.8c-0.4,0-0.8,0.3-0.8,0.8s0.3,0.8,0.8,0.8h7.8c0.4,0,0.8-0.3,0.8-0.8S108.6,122.2,108.2,122.2z"/><path d="M114,122.2h-2.5c-0.4,0-0.8,0.3-0.8,0.8s0.3,0.8,0.8,0.8h2.5c0.4,0,0.8-0.3,0.8-0.8S114.4,122.2,114,122.2z"/><path d="M35.1,115.6H23.9c-0.4,0-0.8,0.3-0.8,0.8c0,0.4,0.3,0.8,0.8,0.8h11.2c0.4,0,0.8-0.3,0.8-0.8   C35.8,115.9,35.5,115.6,35.1,115.6z"/><path d="M42.3,115.6h-3.6c-0.4,0-0.8,0.3-0.8,0.8c0,0.4,0.3,0.8,0.8,0.8h3.6c0.4,0,0.8-0.3,0.8-0.8S42.8,115.6,42.3,115.6z"/><path d="M42.3,111.7h-7.8c-0.4,0-0.8,0.3-0.8,0.8s0.3,0.8,0.8,0.8h7.8c0.4,0,0.8-0.3,0.8-0.8S42.8,111.7,42.3,111.7z"/><path d="M31.2,113.2c0.4,0,0.8-0.3,0.8-0.8s-0.3-0.8-0.8-0.8h-2.5c-0.4,0-0.8,0.3-0.8,0.8s0.3,0.8,0.8,0.8H31.2z"/><path d="M94.8,11.1H106c0.4,0,0.8-0.3,0.8-0.8c0-0.4-0.3-0.8-0.8-0.8H94.8c-0.4,0-0.8,0.3-0.8,0.8C94,10.7,94.4,11.1,94.8,11.1z"/><path d="M109.6,11.1h3.6c0.4,0,0.8-0.3,0.8-0.8c0-0.4-0.3-0.8-0.8-0.8h-3.6c-0.4,0-0.8,0.3-0.8,0.8   C108.8,10.7,109.2,11.1,109.6,11.1z"/><path d="M113.2,13.4h-7.8c-0.4,0-0.8,0.3-0.8,0.8c0,0.4,0.3,0.8,0.8,0.8h7.8c0.4,0,0.8-0.3,0.8-0.8S113.6,13.4,113.2,13.4z"/><path d="M99.6,13.4c-0.4,0-0.8,0.3-0.8,0.8c0,0.4,0.3,0.8,0.8,0.8h2.5c0.4,0,0.8-0.3,0.8-0.8c0-0.4-0.3-0.8-0.8-0.8H99.6z"/><path d="M77.6,120.3h-4.2L70,104.7h37.4c3.3,0,5.9-2.7,5.9-5.9v-56c0-3.3-2.7-5.9-5.9-5.9H88.2c-1-0.7-2-1.3-3.2-1.8   c-6.3-2.9-9.5-10.4-10.7-13.5c-0.9-5.2-2.8-10.3-5.6-15.1c0-0.1-0.1-0.2-0.1-0.2c-0.7-1.3-1.6-2.7-2.5-4L65.2,1   c-0.3-0.4-1-0.4-1.2,0l-0.9,1.3c-0.9,1.3-1.8,2.7-2.6,4.1l0,0c0,0,0,0,0,0.1c-1.7,2.9-3,6-4,9.1c-0.7,2-1.2,4-1.5,6l0,0   C53.9,24.5,50.6,32,44.3,35c-1.1,0.5-2.2,1.2-3.2,1.8H21.9c-3.3,0-5.9,2.7-5.9,5.9v56c0,3.3,2.7,5.9,5.9,5.9h37.4L56,120.3h-4.2   c-2,0-3.6,1.6-3.6,3.6s1.6,3.6,3.6,3.6h25.8c2,0,3.6-1.6,3.6-3.6S79.6,120.3,77.6,120.3z M84.4,36.3c1.1,0.5,2.2,1.2,3.2,1.8   c6,4.2,7.6,10.2,8,12.4H74.7v-9.4c0-0.6,0-1.1-0.1-1.7c0,0,0,0,0-0.1c-0.1-0.5-0.2-1.1-0.3-1.6v-0.1c0.5-2.7,0.8-5.5,0.8-8.3   c0-0.9,0-1.9-0.1-2.8C76.9,30.1,79.9,34.2,84.4,36.3z M72.2,55.9h-2.3l0,0l0,0c-0.6,0-1-0.5-1-1.1v-3.5l0,0l0,0V41.2   c0-1.1,0.2-2.3,0.5-3.4c0-0.2,0.1-0.4,0.2-0.5c0.4-1.1,0.9-2.2,1.6-3.3c0.8,1.3,1.4,2.5,1.7,3.8v0.1c0.3,1.1,0.4,2.1,0.4,3.3v10.1   v3.5C73.2,55.4,72.8,55.9,72.2,55.9z M57.2,55.9c-0.6,0-1-0.5-1-1.1v-3.5V41.2c0-1.1,0.1-2.2,0.4-3.2c0-0.1,0-0.1,0.1-0.2   c0-0.2,0.1-0.4,0.2-0.5c0.4-1.1,0.9-2.2,1.6-3.3c0.8,1.2,1.4,2.5,1.7,3.8c0.3,1.1,0.5,2.3,0.5,3.4v13.6c0,0.6-0.5,1.1-1,1.1H57.2z    M62,39.9c0-0.1,0-0.2,0-0.3c0-0.4-0.1-0.8-0.2-1.3l0,0h5.9l0,0c-0.1,0.4-0.1,0.8-0.2,1.2c0,0.1,0,0.2,0,0.3c0,0.4-0.1,0.8-0.1,1.3   v9.4H62v-9.4C62,40.7,62,40.3,62,39.9z M62,54.8v-2.7h5.3v2.7c0,1.2,0.7,2.1,1.8,2.5c-0.1,1.8-0.7,7.2-4.4,11   c-3.8-3.8-4.3-9.3-4.4-11C61.3,56.9,62,56,62,54.8z M64.4,3l0.3-0.4L65,3c0.7,1,1.2,1.9,1.8,2.9h-4.2C63.2,4.8,63.8,3.9,64.4,3z    M58,15.9c0.9-2.9,2.2-5.8,3.8-8.5h5.9c2.6,4.7,4.4,9.5,5.3,14.5l0,0c0.4,2.4,0.7,5,0.7,7.5c0,1.8-0.1,3.6-0.4,5.4   c-0.4-0.7-0.8-1.5-1.3-2.2l-0.3-0.4c-0.1-0.2-0.4-0.3-0.6-0.3s-0.5,0.1-0.6,0.3l-0.3,0.4c-0.9,1.3-1.6,2.7-2.1,4.2v0.1h-6.7   c-0.5-1.5-1.2-2.9-2.1-4.3L59,32.2c-0.1-0.2-0.4-0.3-0.6-0.3c-0.2,0-0.5,0.1-0.6,0.3l-0.3,0.4c-0.5,0.7-0.9,1.5-1.3,2.2   c-0.2-1.8-0.4-3.6-0.4-5.4C55.8,24.8,56.5,20.3,58,15.9z M45,36.3c4.5-2.1,7.5-6.3,9.4-9.8c-0.1,0.9-0.1,1.9-0.1,2.8   c0,2.8,0.3,5.6,0.8,8.3c-0.3,1.1-0.4,2.3-0.4,3.5v9.4H33.8c0.4-2.2,2-8.2,8-12.4l0,0l0,0C42.8,37.5,43.8,36.9,45,36.3z M21.9,38.3   h17.3c-0.2,0.2-0.4,0.3-0.5,0.5c-0.2,0.1-0.3,0.3-0.5,0.4c-0.2,0.2-0.5,0.5-0.7,0.7c-0.1,0.1-0.2,0.3-0.4,0.4   c-0.3,0.3-0.5,0.6-0.7,0.9c-0.1,0.1-0.1,0.1-0.2,0.2c-0.3,0.4-0.6,0.8-0.8,1.1c-0.1,0.1-0.1,0.2-0.2,0.3c-0.2,0.3-0.3,0.5-0.5,0.8   c-0.1,0.1-0.2,0.3-0.2,0.4c-0.1,0.2-0.2,0.5-0.4,0.7C34,44.9,34,45,33.9,45.1c-0.1,0.2-0.2,0.4-0.3,0.6c-0.1,0.1-0.1,0.3-0.2,0.4   c-0.1,0.2-0.2,0.4-0.2,0.6c-0.1,0.1-0.1,0.3-0.1,0.4c-0.1,0.2-0.1,0.4-0.2,0.5c0,0.1-0.1,0.3-0.1,0.4c0,0.2-0.1,0.3-0.1,0.5   c0,0.1-0.1,0.2-0.1,0.3s-0.1,0.3-0.1,0.4c0,0.1,0,0.2-0.1,0.3c0,0.1-0.1,0.3-0.1,0.4c0,0.1,0,0.2,0,0.2c0,0.1,0,0.2,0,0.3v0.1   c0,0.1,0,0.2,0,0.2v0.1c0,0.1,0,0.1,0,0.1c0,0.2,0.1,0.4,0.2,0.6c0.1,0.2,0.3,0.2,0.6,0.2h21.7v2.7c0,1.1,0.7,2.1,1.7,2.4   c-0.9,4.3-3.2,7.8-4.9,9.7c-0.2-1-0.7-1.9-1.5-2.5c-0.8-0.6-1.8-0.8-2.8-0.6h-0.1c-0.3-2.4-2.3-4.2-4.7-4.2c-0.4,0-0.8,0.1-1.2,0.2   c-0.1-1.2-0.8-2.4-1.9-2.9c-0.8-0.3-1.6-0.3-2.4,0c-0.4,0.2-0.7,0.4-1,0.7c-0.5-0.8-1.3-1.3-2.2-1.5s-1.9,0-2.7,0.5   c-0.9,0.6-1.4,1.4-1.6,2.5c-0.1,0.4,0.2,0.8,0.6,0.9c0.4,0.1,0.8-0.2,0.9-0.6c0.1-0.6,0.5-1.2,1-1.5c0.5-0.3,1-0.4,1.6-0.3   c1.2,0.3,2,1.5,1.7,2.8c-0.1,0.4,0.2,0.8,0.6,0.9H36c0.4,0,0.7-0.2,0.7-0.6c0.1-0.4,0.1-0.9,0-1.3c0.2-0.5,0.5-0.8,0.9-1   s0.8-0.2,1.2,0c0.9,0.4,1.3,1.4,0.9,2.3c-0.4,0.3-0.8,0.7-1.1,1.1c-0.2,0.3-0.1,0.8,0.2,1s0.8,0.1,1-0.2c0.6-0.9,1.6-1.4,2.6-1.4   c1.8,0,3.2,1.5,3.2,3.4c-0.3,0.3-0.6,0.6-0.9,0.9c-0.2,0.3-0.1,0.8,0.2,1s0.8,0.1,1-0.2c0.3-0.5,0.8-0.9,1.4-1   c0.6-0.1,1.1,0,1.6,0.4c1,0.7,1.3,2.2,0.6,3.3c-0.2,0.3-0.1,0.7,0.1,1c0.1,0.1,0.3,0.2,0.5,0.2s0.4-0.1,0.5-0.2   c0.2-0.2,5.7-5.2,7.1-12.5h0.9c0.1,2.1,0.8,8.3,5.4,12.5c0.1,0.1,0.3,0.2,0.5,0.2c0.2,0,0.4-0.1,0.5-0.2c4.6-4.2,5.3-10.4,5.4-12.5   h1c1.4,7.4,6.9,12.3,7.1,12.5c0.1,0.1,0.3,0.2,0.5,0.2s0.4-0.1,0.5-0.2c0.3-0.2,0.3-0.7,0.1-1c-0.7-1.1-0.4-2.5,0.6-3.3   c0.5-0.3,1-0.5,1.6-0.4s1.1,0.5,1.4,1c0.2,0.3,0.7,0.4,1,0.2c0.3-0.2,0.4-0.7,0.2-1c-0.2-0.4-0.5-0.7-0.9-0.9   c0-1.9,1.5-3.4,3.2-3.4c1,0,2,0.5,2.6,1.4c0.2,0.3,0.7,0.4,1,0.2s0.4-0.7,0.2-1c-0.3-0.4-0.7-0.8-1.1-1.1c-0.4-0.9,0.1-2,0.9-2.3   c0.4-0.2,0.8-0.2,1.2,0c0.4,0.2,0.8,0.5,0.9,1c-0.1,0.4-0.1,0.9,0,1.3c0.1,0.4,0.4,0.6,0.7,0.6h0.1c0.4-0.1,0.7-0.5,0.6-0.9   c-0.2-1.3,0.5-2.5,1.7-2.8c0.5-0.1,1.1,0,1.6,0.3s0.9,0.9,1,1.5c0.1,0.4,0.5,0.7,0.9,0.6c0.4-0.1,0.7-0.5,0.6-0.9   c-0.2-1-0.8-1.9-1.6-2.5c-0.8-0.5-1.8-0.7-2.7-0.5c-0.9,0.2-1.7,0.8-2.2,1.5c-0.3-0.3-0.6-0.5-1-0.7c-0.8-0.3-1.6-0.3-2.4,0   c-1.2,0.5-1.9,1.7-1.9,2.9c-0.4-0.1-0.8-0.2-1.2-0.2c-2.4,0-4.4,1.9-4.7,4.2h-0.1c-1-0.2-1.9,0-2.8,0.6c-0.3,1.1-0.8,2-1,3   c-1.7-2-4.1-5.5-4.9-9.7c0.9-0.4,1.6-1.3,1.6-2.4v-2.7h21.7c0.2,0,0.4-0.1,0.6-0.2c0.1-0.2,0.2-0.4,0.2-0.6v-0.1c0,0,0,0,0-0.1   s0-0.1,0-0.2c0,0,0-0.1,0-0.2c0-0.1,0-0.2,0-0.3s0-0.2,0-0.2c0-0.1,0-0.2-0.1-0.4c0-0.1,0-0.2-0.1-0.3c0-0.1-0.1-0.3-0.1-0.4   c0-0.1-0.1-0.2-0.1-0.4c0-0.1-0.1-0.3-0.1-0.5c0-0.1-0.1-0.3-0.1-0.4c-0.1-0.2-0.1-0.3-0.2-0.5c-0.1-0.1-0.1-0.3-0.2-0.4   c-0.1-0.2-0.1-0.3-0.2-0.5s-0.1-0.3-0.2-0.5s-0.2-0.4-0.3-0.6c-0.1-0.2-0.2-0.3-0.2-0.5c-0.1-0.2-0.2-0.4-0.3-0.6   c-0.1-0.2-0.2-0.3-0.3-0.5c-0.1-0.2-0.3-0.4-0.4-0.7c-0.1-0.2-0.2-0.3-0.3-0.5c-0.2-0.4-0.5-0.7-0.8-1.1c-0.1-0.1-0.2-0.2-0.3-0.4   c-0.2-0.3-0.4-0.5-0.6-0.8c-0.1-0.2-0.3-0.3-0.4-0.5c-0.2-0.2-0.4-0.4-0.6-0.7c-0.2-0.2-0.3-0.3-0.5-0.5s-0.3-0.3-0.5-0.5h17.3   c2.4,0,4.4,2,4.4,4.4v48.6H17.5V42.8C17.5,40.3,19.5,38.3,21.9,38.3z M17.5,98.7v-5.8h94.4v5.8c0,2.4-2,4.4-4.4,4.4H21.9   C19.5,103.2,17.5,101.2,17.5,98.7z M60.9,104.7h7.6l3.4,15.6H57.5L60.9,104.7z M77.6,126H51.8c-1.2,0-2.1-0.9-2.1-2.1   s0.9-2.1,2.1-2.1h4.8h16.2h4.8c1.2,0,2.1,0.9,2.1,2.1C79.7,125.1,78.8,126,77.6,126z"/><path d="M73.9,95.9H55.5c-1.2,0-2.2,1-2.2,2.2s1,2.2,2.2,2.2h18.4c1.2,0,2.2-1,2.2-2.2C76.1,96.8,75.1,95.9,73.9,95.9z M73.9,98.8   H55.5c-0.4,0-0.7-0.3-0.7-0.7c0-0.4,0.3-0.7,0.7-0.7h18.4c0.4,0,0.7,0.3,0.7,0.7S74.3,98.8,73.9,98.8z"/><path d="M90.9,46.1c0.1,0.2,0.4,0.4,0.6,0.4c0.1,0,0.3,0,0.4-0.1c0.4-0.2,0.5-0.7,0.2-1c-0.7-1.2-1.6-2.3-2.6-3.3   c-0.3-0.3-0.8-0.3-1.1,0c-0.3,0.3-0.3,0.8,0,1.1C89.4,43.9,90.2,45,90.9,46.1z"/><path d="M81.8,38.4c0.2,0.1,0.4,0.2,0.6,0.3c1.2,0.6,2.4,1.3,3.5,2c0.1,0.1,0.3,0.1,0.4,0.1c0.2,0,0.5-0.1,0.6-0.3   c0.2-0.3,0.2-0.8-0.2-1.1c-1.1-0.8-2.4-1.6-3.7-2.2c-0.2-0.1-0.4-0.2-0.6-0.3c-0.4-0.2-0.8-0.1-1,0.3   C81.3,37.7,81.5,38.2,81.8,38.4z"/><path d="M78.7,36.2c0.1,0.1,0.3,0.2,0.5,0.2s0.4-0.1,0.6-0.3c0.3-0.3,0.2-0.8-0.1-1.1c-0.9-0.8-1.8-1.7-2.7-2.8   c-0.3-0.3-0.7-0.4-1.1-0.1c-0.3,0.3-0.4,0.7-0.1,1.1C76.8,34.4,77.7,35.4,78.7,36.2z"/><path d="M50.4,36.4c0.2,0,0.3-0.1,0.5-0.2c1-0.9,2-1.9,2.9-3c0.3-0.3,0.2-0.8-0.1-1.1c-0.3-0.3-0.8-0.2-1.1,0.1   c-0.8,1.1-1.7,2-2.7,2.8c-0.3,0.3-0.4,0.7-0.1,1.1C50,36.3,50.2,36.4,50.4,36.4z"/><path d="M43.3,40.9c0.2,0,0.3,0,0.4-0.1c1.1-0.8,2.2-1.5,3.5-2c0.2-0.1,0.4-0.2,0.6-0.3c0.4-0.2,0.5-0.7,0.3-1   c-0.2-0.4-0.7-0.5-1-0.3c-0.2,0.1-0.4,0.2-0.6,0.3c-1.3,0.6-2.6,1.4-3.7,2.2c-0.3,0.2-0.4,0.7-0.2,1.1C42.8,40.8,43,40.9,43.3,40.9   z"/><path d="M40,42c-1,1-1.8,2.1-2.6,3.3c-0.2,0.4-0.1,0.8,0.2,1c0.1,0.1,0.3,0.1,0.4,0.1c0.2,0,0.5-0.1,0.6-0.4c0.7-1.1,1.5-2.1,2.4-3   c0.3-0.3,0.3-0.8,0-1.1C40.8,41.7,40.3,41.7,40,42z"/><path d="M70.3,26.6c0,0.4,0.3,0.8,0.7,0.8l0,0c0.4,0,0.8-0.3,0.8-0.7c0-6.6-3.5-14.4-3.6-14.7c-0.2-0.4-0.6-0.5-1-0.4   c-0.4,0.2-0.5,0.6-0.4,1C66.9,12.6,70.3,20.3,70.3,26.6z"/><path d="M58.6,27.4L58.6,27.4c0.4,0,0.8-0.3,0.8-0.8c0-6.3,3.4-14,3.5-14.1c0.2-0.4,0-0.8-0.4-1s-0.8,0-1,0.4   c-0.1,0.3-3.7,8.1-3.6,14.7C57.8,27,58.2,27.4,58.6,27.4z"/><path d="M92.5,66.2c0.1,0,0.2,0.1,0.3,0.1c0.3,0,0.6-0.2,0.7-0.4c0-0.1,1.1-2.4,4.3-1.5c0.4,0.1,0.8-0.1,0.9-0.5   c0.1-0.4-0.1-0.8-0.5-0.9c-3.5-1-5.5,1.1-6.1,2.4C91.9,65.6,92.1,66,92.5,66.2z"/><path d="M84.1,70.2c0.2,0,0.5-0.1,0.6-0.3c0,0,0.6-0.8,1.3-0.9c0.4,0,0.8,0.1,1.1,0.4c0.3,0.3,0.8,0.2,1.1-0.1   c0.3-0.3,0.2-0.8-0.1-1.1c-0.9-0.8-1.7-0.9-2.3-0.8c-1.4,0.2-2.3,1.3-2.4,1.5c-0.2,0.3-0.2,0.8,0.2,1.1   C83.7,70.2,83.9,70.2,84.1,70.2z"/><path d="M90.9,70.7c0.1,0.1,0.3,0.1,0.4,0.1c0.3,0,0.5-0.1,0.6-0.4c0-0.1,0.9-1.5,2.3-1.3c0.4,0,0.8-0.3,0.8-0.7   c0-0.4-0.3-0.8-0.7-0.8c-2.4-0.2-3.7,2-3.7,2.1C90.4,70,90.6,70.5,90.9,70.7z"/><path d="M31.6,64.3c3.1-0.8,4.2,1.3,4.3,1.5c0.1,0.3,0.4,0.4,0.7,0.4c0.1,0,0.2,0,0.3-0.1c0.4-0.2,0.5-0.6,0.4-1   c-0.6-1.2-2.6-3.3-6.1-2.4c-0.4,0.1-0.6,0.5-0.5,0.9C30.8,64.2,31.2,64.4,31.6,64.3z"/><path d="M42.3,69.5c0.4-0.3,0.8-0.5,1.1-0.4c0.6,0.1,1.2,0.6,1.4,0.9c0.1,0.2,0.4,0.3,0.6,0.3c0.2,0,0.3,0,0.4-0.1   c0.3-0.2,0.4-0.7,0.2-1.1c-0.1-0.1-1-1.3-2.4-1.5c-0.6-0.1-1.4,0-2.3,0.8c-0.3,0.3-0.4,0.7-0.1,1.1C41.5,69.7,41.9,69.8,42.3,69.5z   "/><path d="M34.3,68.4c0,0.4,0.4,0.7,0.8,0.7c1.4-0.1,2.3,1.3,2.3,1.3c0.1,0.2,0.4,0.4,0.6,0.4c0.1,0,0.3,0,0.4-0.1   c0.4-0.2,0.5-0.7,0.3-1c-0.1-0.1-1.4-2.3-3.7-2.1C34.6,67.7,34.3,68,34.3,68.4z"/></g><text x="0" y="143" fill="#000000" font-size="5px" font-weight="bold" font-family="'Helvetica Neue', Helvetica, Arial-Unicode, Arial, Sans-serif">Created by Creative Stall</text><text x="0" y="148" fill="#000000" font-size="5px" font-weight="bold" font-family="'Helvetica Neue', Helvetica, Arial-Unicode, Arial, Sans-serif">from the Noun Project</text></svg>